<svg width="48" height="48" viewBox="0 0 48 48" fill="none" xmlns="http://www.w3.org/2000/svg">
<rect width="48" height="48" fill="white"/>
<path d="M8.5 25.5H40.5V29H8.5V25.5Z" stroke="#171938"/>
<path d="M40.5 17.8314V25.5H28.5V12.7544L40.5 17.8314Z" stroke="#171938"/>
<rect x="8.5" y="9.5" width="20" height="16" rx="0.5" stroke="#171938"/>
<rect x="35.5" y="19.5" width="5" height="4" stroke="#171938"/>
<circle cx="16" cy="30" r="3.5" fill="white" stroke="#171938"/>
<circle cx="34" cy="30" r="3.5" fill="white" stroke="#171938"/>
<line x1="8" y1="37.5" x2="41" y2="37.5" stroke="#171938"/>
<circle cx="11.5" cy="12.5" r="7" fill="#E9A721" fill-opacity="0.98" stroke="black"/>
<path d="M8.561 15.197C9.49233 14.449 10.222 13.8367 10.75 13.36C11.278 12.876 11.7217 12.3737 12.081 11.853C12.4477 11.325 12.631 10.808 12.631 10.302C12.631 9.82533 12.5137 9.45133 12.279 9.18C12.0517 8.90133 11.6813 8.762 11.168 8.762C10.6693 8.762 10.2807 8.91967 10.002 9.235C9.73067 9.543 9.584 9.95733 9.562 10.478H8.594C8.62333 9.65667 8.87267 9.02233 9.342 8.575C9.81133 8.12767 10.4163 7.904 11.157 7.904C11.9123 7.904 12.51 8.113 12.95 8.531C13.3973 8.949 13.621 9.52467 13.621 10.258C13.621 10.8667 13.4377 11.4607 13.071 12.04C12.7117 12.612 12.301 13.118 11.839 13.558C11.377 13.9907 10.7867 14.4967 10.068 15.076H13.852V15.912H8.561V15.197Z" fill="black"/>
</svg>
