<svg width="386" height="66" viewBox="0 0 386 66" fill="none" xmlns="http://www.w3.org/2000/svg">
<g filter="url(#filter0_d_132_9)">
<path d="M37 0L44.6335 22.1115H69.3359L49.3512 35.7771L56.9847 57.8885L37 44.2229L17.0153 57.8885L24.6488 35.7771L4.66408 22.1115H29.3665L37 0Z" fill="#1843DD" fill-opacity="0.65" shape-rendering="crispEdges"/>
</g>
<g filter="url(#filter1_d_132_9)">
<path d="M115 0L122.633 22.1115H147.336L127.351 35.7771L134.985 57.8885L115 44.2229L95.0153 57.8885L102.649 35.7771L82.6641 22.1115H107.367L115 0Z" fill="#1843DD" fill-opacity="0.65" shape-rendering="crispEdges"/>
</g>
<g filter="url(#filter2_d_132_9)">
<path d="M193 0L200.633 22.1115H225.336L205.351 35.7771L212.985 57.8885L193 44.2229L173.015 57.8885L180.649 35.7771L160.664 22.1115H185.367L193 0Z" fill="#1843DD" fill-opacity="0.65" shape-rendering="crispEdges"/>
</g>
<g filter="url(#filter3_d_132_9)">
<path d="M271 0L278.633 22.1115H303.336L283.351 35.7771L290.985 57.8885L271 44.2229L251.015 57.8885L258.649 35.7771L238.664 22.1115H263.367L271 0Z" fill="#1843DD" fill-opacity="0.65" shape-rendering="crispEdges"/>
</g>
<g filter="url(#filter4_d_132_9)">
<path d="M349 0L356.633 22.1115H381.336L361.351 35.7771L368.985 57.8885L349 44.2229L329.015 57.8885L336.649 35.7771L316.664 22.1115H341.367L349 0Z" fill="#C4C4C4"/>
</g>
<defs>
<filter id="filter0_d_132_9" x="0.664062" y="0" width="72.6719" height="65.8885" filterUnits="userSpaceOnUse" color-interpolation-filters="sRGB">
<feFlood flood-opacity="0" result="BackgroundImageFix"/>
<feColorMatrix in="SourceAlpha" type="matrix" values="0 0 0 0 0 0 0 0 0 0 0 0 0 0 0 0 0 0 127 0" result="hardAlpha"/>
<feOffset dy="4"/>
<feGaussianBlur stdDeviation="2"/>
<feComposite in2="hardAlpha" operator="out"/>
<feColorMatrix type="matrix" values="0 0 0 0 0 0 0 0 0 0 0 0 0 0 0 0 0 0 0.25 0"/>
<feBlend mode="normal" in2="BackgroundImageFix" result="effect1_dropShadow_132_9"/>
<feBlend mode="normal" in="SourceGraphic" in2="effect1_dropShadow_132_9" result="shape"/>
</filter>
<filter id="filter1_d_132_9" x="78.6641" y="0" width="72.6719" height="65.8885" filterUnits="userSpaceOnUse" color-interpolation-filters="sRGB">
<feFlood flood-opacity="0" result="BackgroundImageFix"/>
<feColorMatrix in="SourceAlpha" type="matrix" values="0 0 0 0 0 0 0 0 0 0 0 0 0 0 0 0 0 0 127 0" result="hardAlpha"/>
<feOffset dy="4"/>
<feGaussianBlur stdDeviation="2"/>
<feComposite in2="hardAlpha" operator="out"/>
<feColorMatrix type="matrix" values="0 0 0 0 0 0 0 0 0 0 0 0 0 0 0 0 0 0 0.25 0"/>
<feBlend mode="normal" in2="BackgroundImageFix" result="effect1_dropShadow_132_9"/>
<feBlend mode="normal" in="SourceGraphic" in2="effect1_dropShadow_132_9" result="shape"/>
</filter>
<filter id="filter2_d_132_9" x="156.664" y="0" width="72.6719" height="65.8885" filterUnits="userSpaceOnUse" color-interpolation-filters="sRGB">
<feFlood flood-opacity="0" result="BackgroundImageFix"/>
<feColorMatrix in="SourceAlpha" type="matrix" values="0 0 0 0 0 0 0 0 0 0 0 0 0 0 0 0 0 0 127 0" result="hardAlpha"/>
<feOffset dy="4"/>
<feGaussianBlur stdDeviation="2"/>
<feComposite in2="hardAlpha" operator="out"/>
<feColorMatrix type="matrix" values="0 0 0 0 0 0 0 0 0 0 0 0 0 0 0 0 0 0 0.25 0"/>
<feBlend mode="normal" in2="BackgroundImageFix" result="effect1_dropShadow_132_9"/>
<feBlend mode="normal" in="SourceGraphic" in2="effect1_dropShadow_132_9" result="shape"/>
</filter>
<filter id="filter3_d_132_9" x="234.664" y="0" width="72.6719" height="65.8885" filterUnits="userSpaceOnUse" color-interpolation-filters="sRGB">
<feFlood flood-opacity="0" result="BackgroundImageFix"/>
<feColorMatrix in="SourceAlpha" type="matrix" values="0 0 0 0 0 0 0 0 0 0 0 0 0 0 0 0 0 0 127 0" result="hardAlpha"/>
<feOffset dy="4"/>
<feGaussianBlur stdDeviation="2"/>
<feComposite in2="hardAlpha" operator="out"/>
<feColorMatrix type="matrix" values="0 0 0 0 0 0 0 0 0 0 0 0 0 0 0 0 0 0 0.25 0"/>
<feBlend mode="normal" in2="BackgroundImageFix" result="effect1_dropShadow_132_9"/>
<feBlend mode="normal" in="SourceGraphic" in2="effect1_dropShadow_132_9" result="shape"/>
</filter>
<filter id="filter4_d_132_9" x="312.664" y="0" width="72.6719" height="65.8885" filterUnits="userSpaceOnUse" color-interpolation-filters="sRGB">
<feFlood flood-opacity="0" result="BackgroundImageFix"/>
<feColorMatrix in="SourceAlpha" type="matrix" values="0 0 0 0 0 0 0 0 0 0 0 0 0 0 0 0 0 0 127 0" result="hardAlpha"/>
<feOffset dy="4"/>
<feGaussianBlur stdDeviation="2"/>
<feComposite in2="hardAlpha" operator="out"/>
<feColorMatrix type="matrix" values="0 0 0 0 0 0 0 0 0 0 0 0 0 0 0 0 0 0 0.25 0"/>
<feBlend mode="normal" in2="BackgroundImageFix" result="effect1_dropShadow_132_9"/>
<feBlend mode="normal" in="SourceGraphic" in2="effect1_dropShadow_132_9" result="shape"/>
</filter>
</defs>
</svg>
